<?xml version="1.0" encoding="UTF-8"?>
<svg xmlns="http://www.w3.org/2000/svg" xmlns:xlink="http://www.w3.org/1999/xlink" width="212px" height="150px" viewBox="0 0 212 150" version="1.1">
<g id="surface1">
<path style=" stroke:none;fill-rule:nonzero;fill:rgb(90.196079%,90.196079%,90.196079%);fill-opacity:1;" d="M 172.199219 101.1875 L 175.597656 116.613281 L 146.1875 120.777344 L 155.011719 97.886719 Z M 172.199219 101.1875 "/>
<path style=" stroke:none;fill-rule:nonzero;fill:rgb(80.000001%,80.000001%,80.000001%);fill-opacity:1;" d="M 175.597656 116.613281 L 156.972656 141.578125 L 146.1875 120.777344 Z M 175.597656 116.613281 "/>
<path style=" stroke:none;fill-rule:nonzero;fill:rgb(94.901961%,94.901961%,94.901961%);fill-opacity:1;" d="M 163.832031 63.207031 L 172.199219 101.1875 L 155.011719 97.886719 L 138.347656 90.257812 L 148.144531 72.222656 Z M 163.832031 63.207031 "/>
<path style=" stroke:none;fill-rule:nonzero;fill:rgb(90.196079%,90.196079%,90.196079%);fill-opacity:1;" d="M 159.859375 45.183594 L 163.832031 63.207031 L 148.144531 72.222656 L 129.523438 63.90625 L 127.5625 50.726562 Z M 159.859375 45.183594 "/>
<path style=" stroke:none;fill-rule:nonzero;fill:rgb(94.901961%,94.901961%,94.901961%);fill-opacity:1;" d="M 154.652344 21.527344 L 159.859375 45.183594 L 127.5625 50.726562 L 140.304688 32.691406 Z M 154.652344 21.527344 "/>
<path style=" stroke:none;fill-rule:nonzero;fill:rgb(94.901961%,94.901961%,94.901961%);fill-opacity:1;" d="M 146.1875 120.777344 L 156.972656 141.578125 L 103.058594 149.902344 L 68.753906 117.308594 Z M 146.1875 120.777344 "/>
<path style=" stroke:none;fill-rule:nonzero;fill:rgb(80.000001%,80.000001%,80.000001%);fill-opacity:1;" d="M 155.011719 97.886719 L 146.1875 120.777344 L 68.753906 117.308594 L 75.613281 38.242188 L 122.660156 22.289062 L 140.304688 32.691406 L 127.5625 50.726562 L 129.523438 63.90625 L 148.144531 72.222656 L 138.347656 90.257812 Z M 155.011719 97.886719 "/>
<path style=" stroke:none;fill-rule:nonzero;fill:rgb(90.196079%,90.196079%,90.196079%);fill-opacity:1;" d="M 152.070312 9.804688 L 154.652344 21.527344 L 140.304688 32.691406 L 122.660156 22.289062 Z M 152.070312 9.804688 "/>
<path style=" stroke:none;fill-rule:nonzero;fill:rgb(80.000001%,80.000001%,80.000001%);fill-opacity:1;" d="M 152.070312 9.804688 L 122.660156 22.289062 L 133.445312 0.0976562 Z M 152.070312 9.804688 "/>
<path style=" stroke:none;fill-rule:nonzero;fill:rgb(94.901961%,94.901961%,94.901961%);fill-opacity:1;" d="M 133.445312 0.0976562 L 122.660156 22.289062 L 75.613281 38.242188 L 95.21875 7.035156 Z M 133.445312 0.0976562 "/>
<path style=" stroke:none;fill-rule:nonzero;fill:rgb(70.19608%,70.19608%,70.19608%);fill-opacity:1;" d="M 68.753906 117.308594 L 103.058594 149.902344 L 36.402344 120.078125 Z M 68.753906 117.308594 "/>
<path style=" stroke:none;fill-rule:nonzero;fill:rgb(70.19608%,70.19608%,70.19608%);fill-opacity:1;" d="M 95.21875 7.035156 L 75.613281 38.242188 L 47.1875 35.46875 Z M 95.21875 7.035156 "/>
<path style=" stroke:none;fill-rule:nonzero;fill:rgb(60.000002%,60.000002%,60.000002%);fill-opacity:1;" d="M 75.613281 38.242188 L 68.753906 117.308594 L 36.402344 120.078125 L 47.1875 35.46875 Z M 75.613281 38.242188 "/>
</g>
</svg>
