<?xml version="1.0" encoding="UTF-8"?>
<svg xmlns="http://www.w3.org/2000/svg" xmlns:xlink="http://www.w3.org/1999/xlink" width="212px" height="150px" viewBox="0 0 212 150" version="1.1">
<g id="surface1">
<path style=" stroke:none;fill-rule:nonzero;fill:rgb(92.156863%,72.941178%,3.529412%);fill-opacity:1;" d="M 211.375 0.179688 L 128.433594 105.65625 L 3.578125 86.300781 C 3.578125 86.300781 -1.808594 63.488281 99.207031 34.445312 C 200.21875 5.398438 211.375 0.179688 211.375 0.179688 Z M 211.375 0.179688 "/>
<path style=" stroke:none;fill-rule:nonzero;fill:rgb(100%,86.274511%,0%);fill-opacity:1;" d="M 86.449219 149.820312 L 128.417969 105.65625 C 128.417969 105.65625 80.613281 47.910156 3.578125 86.300781 C 3.578125 86.300781 -23.511719 149.488281 86.449219 149.820312 Z M 86.449219 149.820312 "/>
<path style=" stroke:none;fill-rule:nonzero;fill:rgb(36.078432%,12.941177%,0%);fill-opacity:1;" d="M 125.515625 59.042969 C 136.828125 50.566406 165.621094 30.867188 182.753906 29.699219 C 184.421875 29.632812 186.210938 29.976562 187.324219 30.777344 C 186.074219 30.066406 184.371094 29.867188 182.789062 30 C 177.957031 30.464844 173.734375 32.289062 169.722656 33.988281 C 164.351562 36.378906 159.261719 39.035156 154.359375 41.8125 C 144.542969 47.222656 134.898438 53.289062 125.53125 59.042969 Z M 125.515625 59.042969 "/>
<path style=" stroke:none;fill-rule:nonzero;fill:rgb(36.078432%,12.941177%,0%);fill-opacity:1;" d="M 202.320312 11.679688 C 163.882812 21.488281 124.75 36.332031 104.660156 60.332031 C 106.816406 57.246094 109.386719 54.277344 112.273438 51.421875 C 133.246094 31.832031 167.585938 18.957031 202.320312 11.679688 Z M 202.320312 11.679688 "/>
<path style=" stroke:none;fill-rule:nonzero;fill:rgb(36.078432%,12.941177%,0%);fill-opacity:1;" d="M 178.097656 10.054688 C 161.121094 16.789062 142.597656 24.023438 126 31.054688 C 117.398438 34.621094 108.9375 38.332031 100.664062 42.199219 C 92.515625 46.121094 84.105469 50.023438 77.691406 55.15625 C 83.53125 49.710938 91.871094 45.601562 99.867188 41.511719 C 108.015625 37.488281 116.511719 33.777344 125.0625 30.121094 C 142.316406 22.976562 159.9375 16.1875 178.113281 10.054688 Z M 178.097656 10.054688 "/>
<path style=" stroke:none;fill-rule:nonzero;fill:rgb(90.588236%,81.568629%,16.470589%);fill-opacity:1;" d="M 138.234375 132.121094 C 143.101562 108.035156 162.703125 81.101562 195.214844 67.535156 C 167.082031 85.246094 150.761719 108.542969 138.234375 132.121094 Z M 138.234375 132.121094 "/>
<path style=" stroke:none;fill-rule:nonzero;fill:rgb(90.588236%,81.568629%,16.470589%);fill-opacity:1;" d="M 151.789062 137.179688 C 155.074219 123.976562 171.945312 94.1875 195.214844 91.855469 C 191.894531 92.765625 189.21875 94.1875 186.855469 95.800781 C 179.765625 100.722656 174.96875 106.722656 170.121094 112.644531 C 163.65625 120.710938 158.097656 129 151.769531 137.167969 Z M 151.789062 137.179688 "/>
</g>
</svg>
