<?xml version="1.0" encoding="UTF-8"?>
<svg xmlns="http://www.w3.org/2000/svg" xmlns:xlink="http://www.w3.org/1999/xlink" width="212px" height="150px" viewBox="0 0 212 150" version="1.1">
<g id="surface1">
<path style="fill-rule:nonzero;fill:rgb(95.294118%,83.137256%,82.352942%);fill-opacity:1;stroke-width:0.5;stroke-linecap:butt;stroke-linejoin:miter;stroke:rgb(60.784316%,10.588235%,10.588235%);stroke-opacity:1;stroke-miterlimit:10;" d="M 26.989884 62.859375 C 26.989884 62.859375 19.150022 72.739688 14.489682 73.020234 C 14.489682 73.020234 11.580336 78.479297 15.809662 80.299688 C 19.379791 81.828984 24.460053 77.949844 29.289947 74.279531 C 31.349941 72.710156 32.390238 71.929688 33.530366 70.750547 C 37.579839 66.609844 39.330041 62.040938 40.139777 59.260781 C 40.139777 59.260781 44.75971 34.589531 40.820368 29.569219 C 40.820368 29.569219 37.33977 14.069531 27.350383 7.950234 C 27.350383 7.950234 23.540186 4.068984 9.670088 1.010391 C 9.670088 1.020938 1.239958 -1.638984 0.690098 3.659766 C 0.140238 8.969062 1.979971 8.990156 6.699735 9.629297 C 11.42029 10.270547 32.459961 16.699922 32.100254 37.880156 C 31.739755 59.070938 26.989884 62.850938 26.989884 62.850938 Z M 26.989884 62.859375 " transform="matrix(4.930233,0,0,1.851852,0,0)"/>
<path style="fill-rule:nonzero;fill:rgb(95.294118%,83.137256%,82.352942%);fill-opacity:1;stroke-width:0.5;stroke-linecap:butt;stroke-linejoin:miter;stroke:rgb(60.784316%,10.588235%,10.588235%);stroke-opacity:1;stroke-miterlimit:10;" d="M 18.550247 71.220938 C 18.550247 71.220938 15.980008 79.679531 20.959648 79.789219 " transform="matrix(4.930233,0,0,1.851852,0,0)"/>
<path style="fill-rule:nonzero;fill:rgb(95.294118%,83.137256%,82.352942%);fill-opacity:1;stroke-width:0.5;stroke-linecap:butt;stroke-linejoin:miter;stroke:rgb(60.784316%,10.588235%,10.588235%);stroke-opacity:1;stroke-miterlimit:10;" d="M 21.960329 68.350078 C 21.960329 68.350078 19.82982 71.298984 26.420217 76.428984 " transform="matrix(4.930233,0,0,1.851852,0,0)"/>
<path style="fill-rule:nonzero;fill:rgb(95.294118%,83.137256%,82.352942%);fill-opacity:1;stroke-width:0.5;stroke-linecap:butt;stroke-linejoin:miter;stroke:rgb(60.784316%,10.588235%,10.588235%);stroke-opacity:1;stroke-miterlimit:10;" d="M 26.180148 63.840234 C 26.180148 63.840234 26.900354 73.370391 31.419664 72.63 " transform="matrix(4.930233,0,0,1.851852,0,0)"/>
<path style="fill-rule:nonzero;fill:rgb(95.294118%,83.137256%,82.352942%);fill-opacity:1;stroke-width:0.5;stroke-linecap:butt;stroke-linejoin:miter;stroke:rgb(60.784316%,10.588235%,10.588235%);stroke-opacity:1;stroke-miterlimit:10;" d="M 29.590231 59.220703 C 28.960348 59.600391 29.780384 66.69 36.380288 67.289062 " transform="matrix(4.930233,0,0,1.851852,0,0)"/>
<path style="fill-rule:nonzero;fill:rgb(95.294118%,83.137256%,82.352942%);fill-opacity:1;stroke-width:0.5;stroke-linecap:butt;stroke-linejoin:miter;stroke:rgb(60.784316%,10.588235%,10.588235%);stroke-opacity:1;stroke-miterlimit:10;" d="M 30.839696 53.379844 C 30.839696 53.379844 33.829857 62.351016 40.379846 57.919219 " transform="matrix(4.930233,0,0,1.851852,0,0)"/>
<path style="fill-rule:nonzero;fill:rgb(95.294118%,83.137256%,82.352942%);fill-opacity:1;stroke-width:0.5;stroke-linecap:butt;stroke-linejoin:miter;stroke:rgb(60.784316%,10.588235%,10.588235%);stroke-opacity:1;stroke-miterlimit:10;" d="M 31.709648 47.009531 C 31.709648 47.009531 37.140109 55.62 41.530273 50.209453 " transform="matrix(4.930233,0,0,1.851852,0,0)"/>
<path style="fill-rule:nonzero;fill:rgb(95.294118%,83.137256%,82.352942%);fill-opacity:1;stroke-width:0.5;stroke-linecap:butt;stroke-linejoin:miter;stroke:rgb(60.784316%,10.588235%,10.588235%);stroke-opacity:1;stroke-miterlimit:10;" d="M 42.400225 39.230156 C 42.400225 39.230156 41.509673 45.910547 31.680332 43.240078 " transform="matrix(4.930233,0,0,1.851852,0,0)"/>
<path style="fill-rule:nonzero;fill:rgb(95.294118%,83.137256%,82.352942%);fill-opacity:1;stroke-width:0.5;stroke-linecap:butt;stroke-linejoin:miter;stroke:rgb(60.784316%,10.588235%,10.588235%);stroke-opacity:1;stroke-miterlimit:10;" d="M 41.840065 31.969688 C 41.840065 31.969688 37.839715 38.939063 32.609707 36.490078 " transform="matrix(4.930233,0,0,1.851852,0,0)"/>
<path style="fill-rule:nonzero;fill:rgb(95.294118%,83.137256%,82.352942%);fill-opacity:1;stroke-width:0.5;stroke-linecap:butt;stroke-linejoin:miter;stroke:rgb(60.784316%,10.588235%,10.588235%);stroke-opacity:1;stroke-miterlimit:10;" d="M 39.739663 25.901016 C 39.739663 25.901016 36.400096 32.381016 31.899801 30.600703 " transform="matrix(4.930233,0,0,1.851852,0,0)"/>
<path style="fill-rule:nonzero;fill:rgb(95.294118%,83.137256%,82.352942%);fill-opacity:1;stroke-width:0.5;stroke-linecap:butt;stroke-linejoin:miter;stroke:rgb(60.784316%,10.588235%,10.588235%);stroke-opacity:1;stroke-miterlimit:10;" d="M 36.359688 18.130078 C 36.359688 18.130078 33.870265 27.179297 28.82011 24.399141 " transform="matrix(4.930233,0,0,1.851852,0,0)"/>
<path style="fill-rule:nonzero;fill:rgb(95.294118%,83.137256%,82.352942%);fill-opacity:1;stroke-width:0.5;stroke-linecap:butt;stroke-linejoin:miter;stroke:rgb(60.784316%,10.588235%,10.588235%);stroke-opacity:1;stroke-miterlimit:10;" d="M 32.470261 11.358984 C 32.470261 11.358984 32.2397 19.220625 25.420327 19.779609 " transform="matrix(4.930233,0,0,1.851852,0,0)"/>
<path style="fill-rule:nonzero;fill:rgb(95.294118%,83.137256%,82.352942%);fill-opacity:1;stroke-width:0.5;stroke-linecap:butt;stroke-linejoin:miter;stroke:rgb(60.784316%,10.588235%,10.588235%);stroke-opacity:1;stroke-miterlimit:10;" d="M 25.600181 6.680391 C 25.600181 6.680391 27.420106 14.999766 20.160212 15.250781 " transform="matrix(4.930233,0,0,1.851852,0,0)"/>
<path style="fill-rule:nonzero;fill:rgb(95.294118%,83.137256%,82.352942%);fill-opacity:1;stroke-width:0.5;stroke-linecap:butt;stroke-linejoin:miter;stroke:rgb(60.784316%,10.588235%,10.588235%);stroke-opacity:1;stroke-miterlimit:10;" d="M 18.269771 3.389766 C 18.269771 3.389766 20.27985 10.740938 14.800265 12.230156 " transform="matrix(4.930233,0,0,1.851852,0,0)"/>
<path style="fill-rule:nonzero;fill:rgb(95.294118%,83.137256%,82.352942%);fill-opacity:1;stroke-width:0.5;stroke-linecap:butt;stroke-linejoin:miter;stroke:rgb(60.784316%,10.588235%,10.588235%);stroke-opacity:1;stroke-miterlimit:10;" d="M 10.159732 0.890156 C 10.159732 0.890156 13.560307 5.629922 8.960182 9.629297 " transform="matrix(4.930233,0,0,1.851852,0,0)"/>
</g>
</svg>
