<?xml version="1.0" encoding="UTF-8"?>
<svg xmlns="http://www.w3.org/2000/svg" xmlns:xlink="http://www.w3.org/1999/xlink" width="212px" height="150px" viewBox="0 0 212 150" version="1.1">
<g id="surface1">
<path style="fill-rule:nonzero;fill:rgb(95.294118%,83.137256%,82.352942%);fill-opacity:1;stroke-width:0.5;stroke-linecap:butt;stroke-linejoin:miter;stroke:rgb(60.784316%,10.588235%,10.588235%);stroke-opacity:1;stroke-miterlimit:10;" d="M 12.950103 12.688932 C 12.950103 12.688932 10.609891 11.639974 10.690153 4.680729 C 10.690153 4.680729 8.119767 -2.570443 2.569723 2.659505 C 0.640109 4.470443 0.419885 7.050781 0.959832 9.641016 C 1.980027 14.539453 5.699956 19.509635 5.699956 19.509635 C 5.699956 19.509635 16.110186 26.590104 17.310142 27.000781 C 18.510097 27.408984 23.719856 29.709766 24.539726 41.169141 C 25.360259 52.63099 21.769679 66.559375 21.769679 66.559375 L 17.499853 88.011068 C 17.499853 88.011068 14.650206 96.160286 24.210053 93.810026 C 24.210053 93.810026 25.59972 94.421094 32.10031 64.419401 C 32.10031 64.419401 41.069797 43.069141 28.920327 25.40013 C 28.920327 25.40013 25.169885 18.470573 12.940153 12.688932 Z M 12.950103 12.688932 " transform="matrix(5.888889,0,0,1.578947,0,0)"/>
<path style="fill-rule:nonzero;fill:rgb(95.294118%,83.137256%,82.352942%);fill-opacity:1;stroke-width:0.5;stroke-linecap:butt;stroke-linejoin:miter;stroke:rgb(60.784316%,10.588235%,10.588235%);stroke-opacity:1;stroke-miterlimit:10;" d="M 10.710053 6.330859 C 10.710053 6.330859 1.199956 12.520703 0.959832 9.641016 " transform="matrix(5.888889,0,0,1.578947,0,0)"/>
<path style="fill-rule:nonzero;fill:rgb(95.294118%,83.137256%,82.352942%);fill-opacity:1;stroke-width:0.5;stroke-linecap:butt;stroke-linejoin:miter;stroke:rgb(60.784316%,10.588235%,10.588235%);stroke-opacity:1;stroke-miterlimit:10;" d="M 3.729879 16.449349 C 3.729879 16.449349 11.190301 15.571094 12.150133 11.89974 " transform="matrix(5.888889,0,0,1.578947,0,0)"/>
<path style="fill-rule:nonzero;fill:rgb(95.294118%,83.137256%,82.352942%);fill-opacity:1;stroke-width:0.5;stroke-linecap:butt;stroke-linejoin:miter;stroke:rgb(60.784316%,10.588235%,10.588235%);stroke-opacity:1;stroke-miterlimit:10;" d="M 9.610259 22.139453 C 9.610259 22.139453 17.789726 18.849089 16.260097 15.049089 " transform="matrix(5.888889,0,0,1.578947,0,0)"/>
<path style="fill-rule:nonzero;fill:rgb(95.294118%,83.137256%,82.352942%);fill-opacity:1;stroke-width:0.5;stroke-linecap:butt;stroke-linejoin:miter;stroke:rgb(60.784316%,10.588235%,10.588235%);stroke-opacity:1;stroke-miterlimit:10;" d="M 14.680056 25.459505 C 14.680056 25.459505 20.730248 24.170573 21.749779 18.638802 " transform="matrix(5.888889,0,0,1.578947,0,0)"/>
<path style="fill-rule:nonzero;fill:rgb(95.294118%,83.137256%,82.352942%);fill-opacity:1;stroke-width:0.5;stroke-linecap:butt;stroke-linejoin:miter;stroke:rgb(60.784316%,10.588235%,10.588235%);stroke-opacity:1;stroke-miterlimit:10;" d="M 20.510024 29.279297 C 20.510024 29.279297 25.059773 28.799349 26.860038 22.639193 " transform="matrix(5.888889,0,0,1.578947,0,0)"/>
<path style="fill-rule:nonzero;fill:rgb(95.294118%,83.137256%,82.352942%);fill-opacity:1;stroke-width:0.5;stroke-linecap:butt;stroke-linejoin:miter;stroke:rgb(60.784316%,10.588235%,10.588235%);stroke-opacity:1;stroke-miterlimit:10;" d="M 23.140109 33.930339 C 23.140109 33.930339 28.999926 36.208854 31.590212 29.979427 " transform="matrix(5.888889,0,0,1.578947,0,0)"/>
<path style="fill-rule:nonzero;fill:rgb(95.294118%,83.137256%,82.352942%);fill-opacity:1;stroke-width:0.5;stroke-linecap:butt;stroke-linejoin:miter;stroke:rgb(60.784316%,10.588235%,10.588235%);stroke-opacity:1;stroke-miterlimit:10;" d="M 24.529776 41.169141 C 24.529776 41.169141 30.69008 44.410026 34.729732 40.03112 " transform="matrix(5.888889,0,0,1.578947,0,0)"/>
<path style="fill-rule:nonzero;fill:rgb(95.294118%,83.137256%,82.352942%);fill-opacity:1;stroke-width:0.5;stroke-linecap:butt;stroke-linejoin:miter;stroke:rgb(60.784316%,10.588235%,10.588235%);stroke-opacity:1;stroke-miterlimit:10;" d="M 24.549676 48.269401 C 24.549676 48.269401 30.719929 51.809635 35.269679 48.289193 " transform="matrix(5.888889,0,0,1.578947,0,0)"/>
<path style="fill-rule:nonzero;fill:rgb(95.294118%,83.137256%,82.352942%);fill-opacity:1;stroke-width:0.5;stroke-linecap:butt;stroke-linejoin:miter;stroke:rgb(60.784316%,10.588235%,10.588235%);stroke-opacity:1;stroke-miterlimit:10;" d="M 23.650206 56.901042 C 23.650206 56.901042 31.019752 61.200781 34.449808 55.928776 " transform="matrix(5.888889,0,0,1.578947,0,0)"/>
<path style="fill-rule:nonzero;fill:rgb(95.294118%,83.137256%,82.352942%);fill-opacity:1;stroke-width:0.5;stroke-linecap:butt;stroke-linejoin:miter;stroke:rgb(60.784316%,10.588235%,10.588235%);stroke-opacity:1;stroke-miterlimit:10;" d="M 21.599867 65.159115 C 21.599867 65.159115 25.520121 68.860156 31.850236 65.579687 " transform="matrix(5.888889,0,0,1.578947,0,0)"/>
<path style="fill-rule:nonzero;fill:rgb(95.294118%,83.137256%,82.352942%);fill-opacity:1;stroke-width:0.5;stroke-linecap:butt;stroke-linejoin:miter;stroke:rgb(60.784316%,10.588235%,10.588235%);stroke-opacity:1;stroke-miterlimit:10;" d="M 20.299749 73.929297 C 20.299749 73.929297 25.949956 78.060807 29.829746 73.709115 " transform="matrix(5.888889,0,0,1.578947,0,0)"/>
<path style="fill-rule:nonzero;fill:rgb(95.294118%,83.137256%,82.352942%);fill-opacity:1;stroke-width:0.5;stroke-linecap:butt;stroke-linejoin:miter;stroke:rgb(60.784316%,10.588235%,10.588235%);stroke-opacity:1;stroke-miterlimit:10;" d="M 17.779776 84.060156 C 17.779776 84.060156 23.120209 87.630078 27.60031 83.899349 " transform="matrix(5.888889,0,0,1.578947,0,0)"/>
</g>
</svg>
