<?xml version="1.0" encoding="UTF-8"?>
<svg xmlns="http://www.w3.org/2000/svg" xmlns:xlink="http://www.w3.org/1999/xlink" width="212px" height="150px" viewBox="0 0 212 150" version="1.1">
<g id="surface1">
<path style=" stroke:none;fill-rule:nonzero;fill:rgb(95.294118%,83.137256%,82.352942%);fill-opacity:1;" d="M 132.796875 129.601562 C 132.796875 129.601562 148.230469 152.460938 187.40625 149.300781 C 187.40625 149.300781 204.621094 146.941406 191.773438 134.578125 C 191.773438 134.578125 179.351562 135.339844 171.210938 123.859375 C 171.210938 123.859375 170.40625 118.699219 194.996094 100.398438 C 219.589844 82.101562 209.5 64.5 201.144531 57.941406 C 192.792969 51.378906 179.308594 42.320312 156.835938 36.960938 C 134.367188 31.601562 93.832031 31.261719 93.832031 31.261719 C 93.832031 31.261719 68.601562 29.058594 47.191406 22.039062 C 47.191406 22.039062 41.085938 18.039062 46.894531 10.960938 C 46.894531 10.960938 40.578125 -6.578125 9.457031 3.539062 C 9.457031 3.539062 -15.898438 16.699219 22.34375 38.199219 C 22.34375 38.199219 64.492188 50.320312 99.511719 49.300781 C 99.511719 49.300781 165.742188 54.160156 165.273438 74.140625 C 165.273438 74.140625 172.949219 83.300781 136.484375 106.660156 C 136.484375 106.660156 122.410156 123.179688 132.796875 129.578125 Z M 132.796875 129.601562 "/>
<path style=" stroke:none;fill-rule:nonzero;fill:rgb(60.784316%,10.588235%,10.588235%);fill-opacity:1;" d="M 132.925781 129.558594 C 139.367188 137.578125 150.988281 145.761719 169.089844 148.421875 C 193.511719 151.5 201.359375 145.078125 190.503906 134.878906 C 190.503906 134.878906 191.945312 135.238281 191.945312 135.238281 C 179.308594 135.101562 173.332031 128.78125 169.601562 123.980469 C 169.726562 122.238281 170.746094 121 171.636719 119.621094 C 178.207031 110.519531 191.179688 102.621094 199.914062 94.179688 C 214.96875 78.960938 209.753906 61.738281 185.667969 49.398438 C 162.644531 35.539062 128.515625 33.039062 93.324219 32.5 C 76.152344 30.761719 59.613281 27.699219 45.113281 22.980469 C 42.273438 20.921875 41.59375 18.820312 41.59375 16.5 C 41.722656 14.421875 42.78125 12.398438 44.308594 10.480469 C 44.308594 10.480469 44.179688 11.160156 44.179688 11.160156 C 42.613281 7.601562 38.878906 3.660156 32.351562 2.21875 C 25.355469 0.621094 16.917969 2.640625 10.898438 4.5 C 4.75 8.160156 1.609375 15.859375 5.300781 21.398438 C 8.269531 27.320312 16.027344 32.820312 24.039062 37.539062 C 24.039062 37.539062 23.488281 37.320312 23.488281 37.320312 C 40.832031 42.058594 59.785156 45.898438 79.5 47.738281 C 86.242188 48.300781 93.027344 48.539062 99.765625 48.441406 C 122.15625 50.621094 146.195312 54.480469 160.058594 63.601562 C 164.425781 66.261719 167.351562 71.640625 166.675781 73.921875 C 168.414062 77.199219 166.84375 80.160156 165.0625 83.238281 C 159.339844 91.960938 148.441406 99.621094 137.078125 106.898438 C 132.457031 113.441406 124.527344 122.738281 132.925781 129.578125 Z M 132.667969 129.640625 C 127.75 126.320312 128.597656 121.921875 129.703125 118.101562 C 131.058594 114.179688 133.347656 110.339844 136.359375 106.640625 C 154.207031 94.761719 177.570312 78.421875 158.574219 64.078125 C 145.050781 55.238281 121.265625 51.5 99.46875 49.441406 C 92.898438 49.601562 85.773438 49.320312 79.117188 48.78125 C 59.019531 46.960938 39.898438 43.140625 22.21875 38.339844 C 9.582031 31.101562 -1.527344 21.921875 1.527344 12.21875 C 2.585938 9.058594 5.003906 5.960938 9.328125 3.441406 C 12.59375 2.460938 17.171875 1.199219 20.859375 0.738281 C 29.46875 -0.699219 38.753906 1.5 42.738281 5.238281 C 44.902344 7.019531 46.386719 8.980469 47.234375 10.980469 C 44.394531 14.421875 43.289062 18.660156 47.445312 21.960938 C 60.886719 26.28125 77.761719 29.5 93.832031 31.121094 C 139.410156 31.839844 172.566406 36.039062 197.921875 55.28125 C 214.417969 66.699219 214.035156 82.339844 201.867188 94.601562 C 194.191406 101.980469 183.59375 108.539062 176.636719 116.121094 C 174.390625 118.578125 171.890625 121.28125 171.378906 123.820312 C 174.773438 128.261719 180.328125 134.179688 191.734375 134.480469 C 193.257812 135.601562 194.277344 137.140625 195.253906 138.460938 C 201.230469 148.378906 187.449219 151.359375 168.792969 148.839844 C 150.519531 146.058594 138.945312 137.761719 132.628906 129.621094 Z M 132.667969 129.640625 "/>
<path style="fill:none;stroke-width:0.5;stroke-linecap:butt;stroke-linejoin:miter;stroke:rgb(60.784316%,10.588235%,10.588235%);stroke-opacity:1;stroke-miterlimit:10;" d="M 42.750405 66.150391 C 42.750405 66.150391 38.319944 73.849609 38.950103 74.089844 " transform="matrix(4.24,0,0,2,0,0)"/>
<path style="fill:none;stroke-width:0.5;stroke-linecap:butt;stroke-linejoin:miter;stroke:rgb(60.784316%,10.588235%,10.588235%);stroke-opacity:1;stroke-miterlimit:10;" d="M 40.379938 61.929688 C 40.379938 61.929688 32.209979 67.029297 32.700103 67.880859 " transform="matrix(4.24,0,0,2,0,0)"/>
<path style="fill:none;stroke-width:0.5;stroke-linecap:butt;stroke-linejoin:miter;stroke:rgb(60.784316%,10.588235%,10.588235%);stroke-opacity:1;stroke-miterlimit:10;" d="M 41.290168 58.810547 C 41.290168 58.810547 32.179577 57.599609 30.460458 60.509766 " transform="matrix(4.24,0,0,2,0,0)"/>
<path style="fill:none;stroke-width:0.5;stroke-linecap:butt;stroke-linejoin:miter;stroke:rgb(60.784316%,10.588235%,10.588235%);stroke-opacity:1;stroke-miterlimit:10;" d="M 43.070091 55.150391 C 43.070091 55.150391 37.539615 51.640625 32.199845 53.349609 " transform="matrix(4.24,0,0,2,0,0)"/>
<path style="fill:none;stroke-width:0.5;stroke-linecap:butt;stroke-linejoin:miter;stroke:rgb(60.784316%,10.588235%,10.588235%);stroke-opacity:1;stroke-miterlimit:10;" d="M 45.680093 50.689453 C 45.680093 50.689453 39.020121 45.160156 36.36037 46.880859 " transform="matrix(4.24,0,0,2,0,0)"/>
<path style="fill:none;stroke-width:0.5;stroke-linecap:butt;stroke-linejoin:miter;stroke:rgb(60.784316%,10.588235%,10.588235%);stroke-opacity:1;stroke-miterlimit:10;" d="M 48.500147 44.939453 C 48.500147 44.939453 42.579968 40.75 38.330078 42.480469 " transform="matrix(4.24,0,0,2,0,0)"/>
<path style="fill:none;stroke-width:0.5;stroke-linecap:butt;stroke-linejoin:miter;stroke:rgb(60.784316%,10.588235%,10.588235%);stroke-opacity:1;stroke-miterlimit:10;" d="M 49.62043 38.810547 C 49.62043 38.810547 43.890035 34.800781 39.090139 37.539062 " transform="matrix(4.24,0,0,2,0,0)"/>
<path style="fill:none;stroke-width:0.5;stroke-linecap:butt;stroke-linejoin:miter;stroke:rgb(60.784316%,10.588235%,10.588235%);stroke-opacity:1;stroke-miterlimit:10;" d="M 47.439748 28.970703 C 47.439748 28.970703 39.910083 29.019531 37.660304 32.330078 " transform="matrix(4.24,0,0,2,0,0)"/>
<path style="fill:none;stroke-width:0.5;stroke-linecap:butt;stroke-linejoin:miter;stroke:rgb(60.784316%,10.588235%,10.588235%);stroke-opacity:1;stroke-miterlimit:10;" d="M 41.729621 21.759766 C 41.729621 21.759766 35.19955 25.009766 34.659677 29.150391 " transform="matrix(4.24,0,0,2,0,0)"/>
<path style="fill:none;stroke-width:0.5;stroke-linecap:butt;stroke-linejoin:miter;stroke:rgb(60.784316%,10.588235%,10.588235%);stroke-opacity:1;stroke-miterlimit:10;" d="M 34.679945 17.539062 C 34.679945 17.539062 29.979547 23.050781 30.170254 26.630859 " transform="matrix(4.24,0,0,2,0,0)"/>
<path style="fill:none;stroke-width:0.5;stroke-linecap:butt;stroke-linejoin:miter;stroke:rgb(60.784316%,10.588235%,10.588235%);stroke-opacity:1;stroke-miterlimit:10;" d="M 26.67029 15.949219 C 26.67029 15.949219 23.500147 20.460938 23.949735 24.220703 " transform="matrix(4.24,0,0,2,0,0)"/>
<path style="fill:none;stroke-width:0.5;stroke-linecap:butt;stroke-linejoin:miter;stroke:rgb(60.784316%,10.588235%,10.588235%);stroke-opacity:1;stroke-miterlimit:10;" d="M 21.349867 15.460938 C 21.349867 15.460938 17.800155 22.160156 18.890035 24.359375 " transform="matrix(4.24,0,0,2,0,0)"/>
<path style="fill:none;stroke-width:0.5;stroke-linecap:butt;stroke-linejoin:miter;stroke:rgb(60.784316%,10.588235%,10.588235%);stroke-opacity:1;stroke-miterlimit:10;" d="M 15.600125 13.980469 C 15.600125 13.980469 11.529886 18.039062 13.389962 22.589844 " transform="matrix(4.24,0,0,2,0,0)"/>
<path style="fill:none;stroke-width:0.5;stroke-linecap:butt;stroke-linejoin:miter;stroke:rgb(60.784316%,10.588235%,10.588235%);stroke-opacity:1;stroke-miterlimit:10;" d="M 11.130049 11.029297 C 11.130049 11.029297 5.220003 14.869141 5.879643 18.869141 " transform="matrix(4.24,0,0,2,0,0)"/>
<path style="fill:none;stroke-width:0.5;stroke-linecap:butt;stroke-linejoin:miter;stroke:rgb(60.784316%,10.588235%,10.588235%);stroke-opacity:1;stroke-miterlimit:10;" d="M 9.850383 8.679688 C 9.850383 8.679688 3.180277 9.25 1.67029 13.580078 " transform="matrix(4.24,0,0,2,0,0)"/>
<path style="fill:none;stroke-width:0.5;stroke-linecap:butt;stroke-linejoin:miter;stroke:rgb(60.784316%,10.588235%,10.588235%);stroke-opacity:1;stroke-miterlimit:10;" d="M 10.720077 5.070312 C 10.720077 5.070312 3.059589 1.849609 1.310068 5.339844 " transform="matrix(4.24,0,0,2,0,0)"/>
</g>
</svg>
