<?xml version="1.0" encoding="UTF-8"?>
<svg xmlns="http://www.w3.org/2000/svg" xmlns:xlink="http://www.w3.org/1999/xlink" width="212px" height="150px" viewBox="0 0 212 150" version="1.1">
<g id="surface1">
<path style="fill-rule:nonzero;fill:rgb(95.294118%,83.137256%,82.352942%);fill-opacity:1;stroke-width:0.5;stroke-linecap:butt;stroke-linejoin:miter;stroke:rgb(60.784316%,10.588235%,10.588235%);stroke-opacity:1;stroke-miterlimit:10;" d="M 0.840212 56.459948 C 0.840212 56.459948 7.260097 63.479714 21.93949 58.890417 C 21.93949 58.890417 30.729658 55.829297 35.050118 44.669792 C 35.050118 44.669792 37.840507 40.299714 32.029776 25.820156 C 32.029776 25.820156 28.210127 23.270547 30.499705 13.939453 C 30.499705 13.939453 42.780071 4.619479 48.839549 16.150703 C 49.049602 16.549427 49.259655 16.979922 49.449808 17.429479 C 49.449808 17.429479 53.580115 24.490547 57.550118 20.509661 C 57.550118 20.509661 61.829673 18.679661 57.550118 11.950599 C 57.550118 11.950599 50.979879 0.940417 45.319502 1.099271 C 45.319502 1.099271 37.220298 -1.080208 27.740271 3.150078 C 27.740271 3.150078 17.19008 10.74013 19.639962 23.880547 C 19.639962 23.880547 22.5398 31.380052 24.529776 34.209245 C 26.519752 37.040026 23.459611 46.809557 20.710127 48.499766 C 17.959537 50.180443 16.57982 51.829349 9.250074 50.849219 C 9.250074 50.849219 -1.300118 45.770651 0.840212 56.459948 Z M 0.840212 56.459948 " transform="matrix(3.533333,0,0,2.459016,0,0)"/>
<path style="fill-rule:nonzero;fill:rgb(95.294118%,83.137256%,82.352942%);fill-opacity:1;stroke-width:0.5;stroke-linecap:butt;stroke-linejoin:miter;stroke:rgb(60.784316%,10.588235%,10.588235%);stroke-opacity:1;stroke-miterlimit:10;" d="M 58.919885 13.799661 C 58.959685 14.730547 50.819575 12.379505 49.439858 17.440599 " transform="matrix(3.533333,0,0,2.459016,0,0)"/>
<path style="fill-rule:nonzero;fill:rgb(95.294118%,83.137256%,82.352942%);fill-opacity:1;stroke-width:0.5;stroke-linecap:butt;stroke-linejoin:miter;stroke:rgb(60.784316%,10.588235%,10.588235%);stroke-opacity:1;stroke-miterlimit:10;" d="M 47.289578 13.799661 C 47.289578 13.799661 49.279555 5.450286 55.780144 9.319974 " transform="matrix(3.533333,0,0,2.459016,0,0)"/>
<path style="fill-rule:nonzero;fill:rgb(95.294118%,83.137256%,82.352942%);fill-opacity:1;stroke-width:0.5;stroke-linecap:butt;stroke-linejoin:miter;stroke:rgb(60.784316%,10.588235%,10.588235%);stroke-opacity:1;stroke-miterlimit:10;" d="M 46.649469 1.280365 C 46.649469 1.280365 39.969782 5.25013 41.729805 10.519323 " transform="matrix(3.533333,0,0,2.459016,0,0)"/>
<path style="fill-rule:nonzero;fill:rgb(95.294118%,83.137256%,82.352942%);fill-opacity:1;stroke-width:0.5;stroke-linecap:butt;stroke-linejoin:miter;stroke:rgb(60.784316%,10.588235%,10.588235%);stroke-opacity:1;stroke-miterlimit:10;" d="M 36.90964 0.549635 C 36.90964 0.549635 31.55992 5.399453 36.90964 10.519323 " transform="matrix(3.533333,0,0,2.459016,0,0)"/>
<path style="fill-rule:nonzero;fill:rgb(95.294118%,83.137256%,82.352942%);fill-opacity:1;stroke-width:0.5;stroke-linecap:butt;stroke-linejoin:miter;stroke:rgb(60.784316%,10.588235%,10.588235%);stroke-opacity:1;stroke-miterlimit:10;" d="M 29.43949 2.460651 C 29.43949 2.460651 21.770342 9.210365 30.489755 13.950573 " transform="matrix(3.533333,0,0,2.459016,0,0)"/>
<path style="fill-rule:nonzero;fill:rgb(95.294118%,83.137256%,82.352942%);fill-opacity:1;stroke-width:0.5;stroke-linecap:butt;stroke-linejoin:miter;stroke:rgb(60.784316%,10.588235%,10.588235%);stroke-opacity:1;stroke-miterlimit:10;" d="M 21.780292 10.249271 C 21.780292 10.249271 21.209832 18.080781 29.450545 18.690781 " transform="matrix(3.533333,0,0,2.459016,0,0)"/>
<path style="fill-rule:nonzero;fill:rgb(95.294118%,83.137256%,82.352942%);fill-opacity:1;stroke-width:0.5;stroke-linecap:butt;stroke-linejoin:miter;stroke:rgb(60.784316%,10.588235%,10.588235%);stroke-opacity:1;stroke-miterlimit:10;" d="M 19.370209 21.939349 C 19.370209 21.939349 23.839917 27.899557 30.759508 24.209375 " transform="matrix(3.533333,0,0,2.459016,0,0)"/>
<path style="fill-rule:nonzero;fill:rgb(95.294118%,83.137256%,82.352942%);fill-opacity:1;stroke-width:0.5;stroke-linecap:butt;stroke-linejoin:miter;stroke:rgb(60.784316%,10.588235%,10.588235%);stroke-opacity:1;stroke-miterlimit:10;" d="M 22.930056 31.419766 C 22.930056 31.419766 28.979584 33.440391 33.17954 28.900339 " transform="matrix(3.533333,0,0,2.459016,0,0)"/>
<path style="fill-rule:nonzero;fill:rgb(95.294118%,83.137256%,82.352942%);fill-opacity:1;stroke-width:0.5;stroke-linecap:butt;stroke-linejoin:miter;stroke:rgb(60.784316%,10.588235%,10.588235%);stroke-opacity:1;stroke-miterlimit:10;" d="M 25.060436 37.189349 C 25.060436 37.189349 33.010392 41.929557 35.030218 37.95026 " transform="matrix(3.533333,0,0,2.459016,0,0)"/>
<path style="fill-rule:nonzero;fill:rgb(95.294118%,83.137256%,82.352942%);fill-opacity:1;stroke-width:0.5;stroke-linecap:butt;stroke-linejoin:miter;stroke:rgb(60.784316%,10.588235%,10.588235%);stroke-opacity:1;stroke-miterlimit:10;" d="M 23.849867 42.080469 C 23.849867 42.080469 25.219634 46.320286 33.819649 47.410026 " transform="matrix(3.533333,0,0,2.459016,0,0)"/>
<path style="fill-rule:nonzero;fill:rgb(95.294118%,83.137256%,82.352942%);fill-opacity:1;stroke-width:0.5;stroke-linecap:butt;stroke-linejoin:miter;stroke:rgb(60.784316%,10.588235%,10.588235%);stroke-opacity:1;stroke-miterlimit:10;" d="M 20.710127 48.499766 C 20.710127 48.499766 22.329746 53.54974 30 53.009635 " transform="matrix(3.533333,0,0,2.459016,0,0)"/>
<path style="fill-rule:nonzero;fill:rgb(95.294118%,83.137256%,82.352942%);fill-opacity:1;stroke-width:0.5;stroke-linecap:butt;stroke-linejoin:miter;stroke:rgb(60.784316%,10.588235%,10.588235%);stroke-opacity:1;stroke-miterlimit:10;" d="M 13.820386 51.130391 C 13.820386 51.130391 11.410304 55.27013 18.660451 59.759349 " transform="matrix(3.533333,0,0,2.459016,0,0)"/>
<path style="fill-rule:nonzero;fill:rgb(95.294118%,83.137256%,82.352942%);fill-opacity:1;stroke-width:0.5;stroke-linecap:butt;stroke-linejoin:miter;stroke:rgb(60.784316%,10.588235%,10.588235%);stroke-opacity:1;stroke-miterlimit:10;" d="M 6.950545 50.029531 C 6.950545 50.029531 4.009802 56.760182 9.68013 60.269271 " transform="matrix(3.533333,0,0,2.459016,0,0)"/>
</g>
</svg>
