<?xml version="1.0" encoding="UTF-8"?>
<svg xmlns="http://www.w3.org/2000/svg" xmlns:xlink="http://www.w3.org/1999/xlink" width="140px" height="150px" viewBox="0 0 140 150" version="1.1">
<defs>
<radialGradient id="radial0" gradientUnits="userSpaceOnUse" cx="0" cy="0" fx="0" fy="0" r="1" gradientTransform="matrix(50.020805,57.211422,-54.693643,54.894802,110.578123,121.554378)">
<stop offset="0" style="stop-color:rgb(40.784314%,87.843137%,28.235294%);stop-opacity:1;"/>
<stop offset="1" style="stop-color:rgb(36.078431%,87.843137%,28.627451%);stop-opacity:0;"/>
</radialGradient>
<radialGradient id="radial1" gradientUnits="userSpaceOnUse" cx="0" cy="0" fx="0" fy="0" r="1" gradientTransform="matrix(-54.869425,54.127167,-51.93873,-60.441173,28.145819,120.993751)">
<stop offset="0" style="stop-color:rgb(18.823529%,54.901961%,99.607843%);stop-opacity:1;"/>
<stop offset="1" style="stop-color:rgb(18.431373%,54.509804%,100%);stop-opacity:0;"/>
</radialGradient>
<radialGradient id="radial2" gradientUnits="userSpaceOnUse" cx="0" cy="0" fx="0" fy="0" r="1" gradientTransform="matrix(43.385479,6.450332,-6.327108,48.853309,108.28125,82.852498)">
<stop offset="0" style="stop-color:rgb(99.215686%,83.529412%,6.666667%);stop-opacity:1;"/>
<stop offset="1" style="stop-color:rgb(99.215686%,82.352941%,5.098039%);stop-opacity:0;"/>
</radialGradient>
<radialGradient id="radial3" gradientUnits="userSpaceOnUse" cx="0" cy="0" fx="0" fy="0" r="1" gradientTransform="matrix(-39.046628,-55.248495,52.541517,-42.627724,29.677069,56.770782)">
<stop offset="0" style="stop-color:rgb(97.647059%,15.686275%,76.078431%);stop-opacity:1;"/>
<stop offset="1" style="stop-color:rgb(97.647059%,13.333333%,73.72549%);stop-opacity:0;"/>
</radialGradient>
<radialGradient id="radial4" gradientUnits="userSpaceOnUse" cx="0" cy="0" fx="0" fy="0" r="1" gradientTransform="matrix(29.093736,-62.25962,58.713784,31.4963,78.166809,31.250015)">
<stop offset="0" style="stop-color:rgb(97.647059%,2.745098%,0%);stop-opacity:1;"/>
<stop offset="1" style="stop-color:rgb(97.647059%,2.745098%,0%);stop-opacity:0;"/>
</radialGradient>
<radialGradient id="radial5" gradientUnits="userSpaceOnUse" cx="0" cy="0" fx="0" fy="0" r="1" gradientTransform="matrix(16.078115,-38.14104,35.911579,17.37815,124.614434,28.445531)">
<stop offset="0" style="stop-color:rgb(98.431373%,25.882353%,0%);stop-opacity:1;"/>
<stop offset="1" style="stop-color:rgb(98.431373%,26.27451%,0%);stop-opacity:0;"/>
</radialGradient>
<radialGradient id="radial6" gradientUnits="userSpaceOnUse" cx="0" cy="0" fx="0" fy="0" r="1" gradientTransform="matrix(-23.989577,-26.923109,25.750557,-26.339678,21.510431,25.360595)">
<stop offset="0" style="stop-color:rgb(99.607843%,5.098039%,53.333333%);stop-opacity:1;"/>
<stop offset="1" style="stop-color:rgb(99.607843%,5.098039%,53.333333%);stop-opacity:0;"/>
</radialGradient>
</defs>
<g id="surface1">
<path style=" stroke:none;fill-rule:nonzero;fill:rgb(100%,100%,100%);fill-opacity:1;" d="M 8.75 56.875 C 8.75 40.25 8.75 31.933594 11.769531 25.585938 C 14.425781 20 18.664062 15.457031 23.878906 12.609375 C 29.804688 9.375 37.566406 9.375 53.082031 9.375 L 86.917969 9.375 C 102.433594 9.375 110.195312 9.375 116.121094 12.609375 C 121.335938 15.457031 125.574219 20 128.230469 25.585938 C 131.25 31.933594 131.25 40.25 131.25 56.875 L 131.25 93.125 C 131.25 109.75 131.25 118.066406 128.230469 124.414062 C 125.574219 130 121.335938 134.542969 116.121094 137.390625 C 110.195312 140.625 102.433594 140.625 86.917969 140.625 L 53.082031 140.625 C 37.566406 140.625 29.804688 140.625 23.878906 137.390625 C 18.664062 134.542969 14.425781 130 11.769531 124.414062 C 8.75 118.066406 8.75 109.75 8.75 93.125 Z M 8.75 56.875 "/>
<path style=" stroke:none;fill-rule:nonzero;fill:url(#radial0);" d="M 8.75 56.875 C 8.75 40.25 8.75 31.933594 11.769531 25.585938 C 14.425781 20 18.664062 15.457031 23.878906 12.609375 C 29.804688 9.375 37.566406 9.375 53.082031 9.375 L 86.917969 9.375 C 102.433594 9.375 110.195312 9.375 116.121094 12.609375 C 121.335938 15.457031 125.574219 20 128.230469 25.585938 C 131.25 31.933594 131.25 40.25 131.25 56.875 L 131.25 93.125 C 131.25 109.75 131.25 118.066406 128.230469 124.414062 C 125.574219 130 121.335938 134.542969 116.121094 137.390625 C 110.195312 140.625 102.433594 140.625 86.917969 140.625 L 53.082031 140.625 C 37.566406 140.625 29.804688 140.625 23.878906 137.390625 C 18.664062 134.542969 14.425781 130 11.769531 124.414062 C 8.75 118.066406 8.75 109.75 8.75 93.125 Z M 8.75 56.875 "/>
<path style=" stroke:none;fill-rule:nonzero;fill:url(#radial1);" d="M 8.75 56.875 C 8.75 40.25 8.75 31.933594 11.769531 25.585938 C 14.425781 20 18.664062 15.457031 23.878906 12.609375 C 29.804688 9.375 37.566406 9.375 53.082031 9.375 L 86.917969 9.375 C 102.433594 9.375 110.195312 9.375 116.121094 12.609375 C 121.335938 15.457031 125.574219 20 128.230469 25.585938 C 131.25 31.933594 131.25 40.25 131.25 56.875 L 131.25 93.125 C 131.25 109.75 131.25 118.066406 128.230469 124.414062 C 125.574219 130 121.335938 134.542969 116.121094 137.390625 C 110.195312 140.625 102.433594 140.625 86.917969 140.625 L 53.082031 140.625 C 37.566406 140.625 29.804688 140.625 23.878906 137.390625 C 18.664062 134.542969 14.425781 130 11.769531 124.414062 C 8.75 118.066406 8.75 109.75 8.75 93.125 Z M 8.75 56.875 "/>
<path style=" stroke:none;fill-rule:nonzero;fill:url(#radial2);" d="M 8.75 56.875 C 8.75 40.25 8.75 31.933594 11.769531 25.585938 C 14.425781 20 18.664062 15.457031 23.878906 12.609375 C 29.804688 9.375 37.566406 9.375 53.082031 9.375 L 86.917969 9.375 C 102.433594 9.375 110.195312 9.375 116.121094 12.609375 C 121.335938 15.457031 125.574219 20 128.230469 25.585938 C 131.25 31.933594 131.25 40.25 131.25 56.875 L 131.25 93.125 C 131.25 109.75 131.25 118.066406 128.230469 124.414062 C 125.574219 130 121.335938 134.542969 116.121094 137.390625 C 110.195312 140.625 102.433594 140.625 86.917969 140.625 L 53.082031 140.625 C 37.566406 140.625 29.804688 140.625 23.878906 137.390625 C 18.664062 134.542969 14.425781 130 11.769531 124.414062 C 8.75 118.066406 8.75 109.75 8.75 93.125 Z M 8.75 56.875 "/>
<path style=" stroke:none;fill-rule:nonzero;fill:url(#radial3);" d="M 8.75 56.875 C 8.75 40.25 8.75 31.933594 11.769531 25.585938 C 14.425781 20 18.664062 15.457031 23.878906 12.609375 C 29.804688 9.375 37.566406 9.375 53.082031 9.375 L 86.917969 9.375 C 102.433594 9.375 110.195312 9.375 116.121094 12.609375 C 121.335938 15.457031 125.574219 20 128.230469 25.585938 C 131.25 31.933594 131.25 40.25 131.25 56.875 L 131.25 93.125 C 131.25 109.75 131.25 118.066406 128.230469 124.414062 C 125.574219 130 121.335938 134.542969 116.121094 137.390625 C 110.195312 140.625 102.433594 140.625 86.917969 140.625 L 53.082031 140.625 C 37.566406 140.625 29.804688 140.625 23.878906 137.390625 C 18.664062 134.542969 14.425781 130 11.769531 124.414062 C 8.75 118.066406 8.75 109.75 8.75 93.125 Z M 8.75 56.875 "/>
<path style=" stroke:none;fill-rule:nonzero;fill:url(#radial4);" d="M 8.75 56.875 C 8.75 40.25 8.75 31.933594 11.769531 25.585938 C 14.425781 20 18.664062 15.457031 23.878906 12.609375 C 29.804688 9.375 37.566406 9.375 53.082031 9.375 L 86.917969 9.375 C 102.433594 9.375 110.195312 9.375 116.121094 12.609375 C 121.335938 15.457031 125.574219 20 128.230469 25.585938 C 131.25 31.933594 131.25 40.25 131.25 56.875 L 131.25 93.125 C 131.25 109.75 131.25 118.066406 128.230469 124.414062 C 125.574219 130 121.335938 134.542969 116.121094 137.390625 C 110.195312 140.625 102.433594 140.625 86.917969 140.625 L 53.082031 140.625 C 37.566406 140.625 29.804688 140.625 23.878906 137.390625 C 18.664062 134.542969 14.425781 130 11.769531 124.414062 C 8.75 118.066406 8.75 109.75 8.75 93.125 Z M 8.75 56.875 "/>
<path style=" stroke:none;fill-rule:nonzero;fill:url(#radial5);" d="M 8.75 56.875 C 8.75 40.25 8.75 31.933594 11.769531 25.585938 C 14.425781 20 18.664062 15.457031 23.878906 12.609375 C 29.804688 9.375 37.566406 9.375 53.082031 9.375 L 86.917969 9.375 C 102.433594 9.375 110.195312 9.375 116.121094 12.609375 C 121.335938 15.457031 125.574219 20 128.230469 25.585938 C 131.25 31.933594 131.25 40.25 131.25 56.875 L 131.25 93.125 C 131.25 109.75 131.25 118.066406 128.230469 124.414062 C 125.574219 130 121.335938 134.542969 116.121094 137.390625 C 110.195312 140.625 102.433594 140.625 86.917969 140.625 L 53.082031 140.625 C 37.566406 140.625 29.804688 140.625 23.878906 137.390625 C 18.664062 134.542969 14.425781 130 11.769531 124.414062 C 8.75 118.066406 8.75 109.75 8.75 93.125 Z M 8.75 56.875 "/>
<path style=" stroke:none;fill-rule:nonzero;fill:url(#radial6);" d="M 8.75 56.875 C 8.75 40.25 8.75 31.933594 11.769531 25.585938 C 14.425781 20 18.664062 15.457031 23.878906 12.609375 C 29.804688 9.375 37.566406 9.375 53.082031 9.375 L 86.917969 9.375 C 102.433594 9.375 110.195312 9.375 116.121094 12.609375 C 121.335938 15.457031 125.574219 20 128.230469 25.585938 C 131.25 31.933594 131.25 40.25 131.25 56.875 L 131.25 93.125 C 131.25 109.75 131.25 118.066406 128.230469 124.414062 C 125.574219 130 121.335938 134.542969 116.121094 137.390625 C 110.195312 140.625 102.433594 140.625 86.917969 140.625 L 53.082031 140.625 C 37.566406 140.625 29.804688 140.625 23.878906 137.390625 C 18.664062 134.542969 14.425781 130 11.769531 124.414062 C 8.75 118.066406 8.75 109.75 8.75 93.125 Z M 8.75 56.875 "/>
<path style=" stroke:none;fill-rule:nonzero;fill:rgb(100%,100%,100%);fill-opacity:1;" d="M 107.058594 48.917969 C 100.574219 41.234375 91.4375 36.914062 81.945312 36.972656 C 72.65625 36.972656 63.210938 41.347656 57.140625 48.414062 C 56.015625 48.300781 54.894531 48.191406 53.820312 48.191406 C 35.597656 48.191406 24.320312 65.015625 24.320312 80.609375 C 24.371094 89.023438 27.332031 97.101562 32.585938 103.269531 C 38.101562 109.71875 45.757812 113.367188 53.820312 113.367188 L 81.945312 113.367188 C 101.035156 113.367188 116.550781 96.148438 116.550781 75.058594 C 116.449219 65.351562 113.082031 56.042969 107.058594 48.917969 Z M 53.257812 107.871094 C 39.734375 107.871094 28.808594 95.808594 28.808594 80.945312 C 28.808594 66.195312 39.683594 54.191406 53.15625 54.078125 C 59.128906 54.078125 65.40625 56.210938 69.390625 60.867188 L 79.648438 72.421875 C 81.332031 74.328125 81.28125 77.355469 79.546875 79.207031 C 77.8125 81.058594 75.054688 81.003906 73.371094 79.09375 L 63.367188 67.765625 C 56.832031 61.59375 46.980469 62.378906 41.367188 69.558594 C 38.917969 72.644531 37.589844 76.628906 37.589844 80.722656 C 37.589844 90.144531 44.890625 98.109375 53.515625 98.109375 L 55.503906 98.109375 C 58.363281 102.484375 66.378906 107.871094 66.378906 107.871094 Z M 103.382812 98.222656 C 97.921875 104.503906 90.367188 108.039062 82.457031 108.09375 C 74.953125 108.09375 67.296875 104.390625 61.425781 97.996094 L 48.054688 83.191406 C 46.367188 81.28125 46.421875 78.253906 48.105469 76.402344 C 48.921875 75.503906 49.992188 75.058594 51.167969 75.058594 C 52.339844 75.058594 53.464844 75.5625 54.28125 76.515625 L 67.601562 91.15625 C 71.839844 95.808594 77.25 98.445312 82.457031 98.445312 C 88.019531 98.445312 93.328125 95.921875 97.15625 91.433594 C 101.085938 87.003906 103.28125 81.058594 103.28125 74.886719 C 103.28125 62.210938 93.890625 51.949219 82.351562 51.890625 C 77.964844 51.890625 74.339844 52.84375 70.765625 55.59375 C 68.742188 53.371094 64.386719 51.164062 62.394531 50.714844 C 67.910156 45.046875 74.800781 42.300781 82.351562 42.300781 C 98.738281 42.300781 111.957031 56.882812 112.007812 74.886719 C 112.007812 83.582031 108.945312 91.996094 103.382812 98.222656 Z M 103.382812 98.222656 "/>
</g>
</svg>
