<?xml version="1.0" encoding="UTF-8"?>
<svg xmlns="http://www.w3.org/2000/svg" xmlns:xlink="http://www.w3.org/1999/xlink" width="140px" height="150px" viewBox="0 0 140 150" version="1.1">
<g id="surface1">
<path style=" stroke:none;fill-rule:nonzero;fill:rgb(10.588235%,45.09804%,72.941178%);fill-opacity:1;" d="M 11.722656 134.285156 L 0 0.25 L 140 0.519531 L 127.605469 134.285156 L 70.527344 149.75 Z M 11.722656 134.285156 "/>
<path style=" stroke:none;fill-rule:nonzero;fill:rgb(10.980392%,53.333336%,78.039217%);fill-opacity:1;" d="M 70.527344 136.804688 L 70.527344 13.015625 L 128.179688 13.195312 L 117.898438 123.949219 Z M 70.527344 136.804688 "/>
<path style=" stroke:none;fill-rule:nonzero;fill:rgb(100%,100%,100%);fill-opacity:1;" d="M 113.863281 28.839844 L 25.175781 28.839844 L 27.578125 45.019531 L 69.664062 45.019531 L 28.25 61.652344 L 30.652344 77.292969 L 91.667969 77.292969 L 89.457031 99.136719 L 68.796875 102.914062 L 50.0625 98.417969 L 48.621094 86.011719 L 31.421875 86.011719 L 33.726562 111.8125 L 70.625 121.429688 L 105.984375 110.914062 L 110.5 60.480469 L 73.121094 60.480469 L 113.863281 44.660156 Z M 113.863281 28.839844 "/>
</g>
</svg>
