<?xml version="1.0" encoding="UTF-8"?>
<svg xmlns="http://www.w3.org/2000/svg" xmlns:xlink="http://www.w3.org/1999/xlink" width="140px" height="150px" viewBox="0 0 140 150" version="1.1">
<g id="surface1">
<path style=" stroke:none;fill-rule:nonzero;fill:rgb(91.37255%,79.215688%,19.607843%);fill-opacity:1;" d="M 11.722656 134.289062 L 0 0.25 L 140 0.519531 L 127.605469 134.289062 L 70.527344 149.75 Z M 11.722656 134.289062 "/>
<path style=" stroke:none;fill-rule:nonzero;fill:rgb(100%,87.058824%,14.509805%);fill-opacity:1;" d="M 70.527344 136.804688 L 70.527344 13.015625 L 128.179688 13.195312 L 117.898438 123.949219 Z M 70.527344 136.804688 "/>
<path style=" stroke:none;fill-rule:nonzero;fill:rgb(100%,100%,100%);fill-opacity:1;" d="M 64.355469 27.714844 L 49.113281 27.714844 L 49.113281 110.105469 L 37.257812 107.992188 L 37.257812 96.902344 L 23.144531 94.789062 L 23.144531 119.613281 L 64.355469 129.644531 Z M 75.789062 27.714844 L 117.984375 27.714844 L 115.160156 43.503906 L 91.894531 43.503906 L 91.894531 69.417969 L 115.160156 69.417969 L 112.339844 121.722656 L 75.789062 129.644531 L 75.789062 113.273438 L 100.484375 105.351562 L 101.910156 83.699219 L 75.789062 87.234375 Z M 75.789062 27.714844 "/>
</g>
</svg>
